<?xml version="1.0" standalone="no"?><svg xmlns="http://www.w3.org/2000/svg" viewBox="0 0 1440 320"><path fill="#fff" fill-opacity="1" d="M0,192L20,160C40,128,80,64,120,58.7C160,53,200,107,240,138.7C280,171,320,181,360,197.3C400,213,440,235,480,218.7C520,203,560,149,600,138.7C640,128,680,160,720,160C760,160,800,128,840,128C880,128,920,160,960,197.3C1000,235,1040,277,1080,261.3C1120,245,1160,171,1200,144C1240,117,1280,139,1320,133.3C1360,128,1400,96,1420,80L1440,64L1440,320L1420,320C1400,320,1360,320,1320,320C1280,320,1240,320,1200,320C1160,320,1120,320,1080,320C1040,320,1000,320,960,320C920,320,880,320,840,320C800,320,760,320,720,320C680,320,640,320,600,320C560,320,520,320,480,320C440,320,400,320,360,320C320,320,280,320,240,320C200,320,160,320,120,320C80,320,40,320,20,320L0,320Z"></path></svg>